<?xml version="1.0" encoding="UTF-8" standalone="no"?>
<!-- Created with Inkscape (http://www.inkscape.org/) -->

<svg
   xmlns:dc="http://purl.org/dc/elements/1.1/"
   xmlns:cc="http://creativecommons.org/ns#"
   xmlns:rdf="http://www.w3.org/1999/02/22-rdf-syntax-ns#"
   xmlns:svg="http://www.w3.org/2000/svg"
   xmlns="http://www.w3.org/2000/svg"
   xmlns:sodipodi="http://sodipodi.sourceforge.net/DTD/sodipodi-0.dtd"
   xmlns:inkscape="http://www.inkscape.org/namespaces/inkscape"
   width="100mm"
   height="50mm"
   viewBox="0 0 100 50"
   version="1.1"
   id="svg1862"
   inkscape:version="0.92.1 r15371"
   sodipodi:docname="cel-icon.svg">
  <defs
     id="defs1856" />
  <sodipodi:namedview
     id="base"
     pagecolor="#ffffff"
     bordercolor="#666666"
     borderopacity="1.0"
     inkscape:pageopacity="0.0"
     inkscape:pageshadow="2"
     inkscape:zoom="0.35"
     inkscape:cx="-418.31271"
     inkscape:cy="560"
     inkscape:document-units="mm"
     inkscape:current-layer="layer1"
     showgrid="false"
     inkscape:window-width="1366"
     inkscape:window-height="701"
     inkscape:window-x="0"
     inkscape:window-y="0"
     inkscape:window-maximized="1" />
  <metadata
     id="metadata1859">
    <rdf:RDF>
      <cc:Work
         rdf:about="">
        <dc:format>image/svg+xml</dc:format>
        <dc:type
           rdf:resource="http://purl.org/dc/dcmitype/StillImage" />
        <dc:title></dc:title>
      </cc:Work>
    </rdf:RDF>
  </metadata>
  <g
     inkscape:label="Calque 1"
     inkscape:groupmode="layer"
     id="layer1"
     transform="translate(0,-247)">
    <g
       id="g3333"
       transform="matrix(1.0385614,0,0,1.0385614,-214.83804,259.52351)"
       inkscape:export-filename="/home/lea/Documents/Graphisme/Flora Data-20190528T075611Z-001 (1)/Flora Data-20190528T075611Z-001/Logos Flora Data - serie/logo-CEL.png"
       inkscape:export-xdpi="90"
       inkscape:export-ydpi="90">
      <g
         transform="translate(-11.641668,5.2916669)"
         id="g2930">
        <path
           id="path1381-4"
           d="m 254.92538,11.358303 0.88899,0.57149 c -1.16416,1.56632 -2.64581,2.34948 -4.44496,2.34948 -0.71967,0 -1.41816,-0.14816 -2.07432,-0.42332 -0.67733,-0.27517 -1.24883,-0.65617 -1.71449,-1.10066 -0.48683,-0.46567 -0.86783,-1.03716 -1.16416,-1.67216 -0.27516,-0.63499 -0.42333,-1.3334897 -0.42333,-2.0319797 0,-0.71965 0.14817,-1.39699 0.42333,-2.05315 0.29633,-0.635 0.67733,-1.2065 1.16416,-1.67216 0.46566,-0.46566 1.03716,-0.82548 1.71449,-1.10066 0.65616,-0.27516 1.35465,-0.42332 2.07432,-0.42332 0.38099,0 0.71966,0.0423 1.07949,0.10582 0.33866,0.0635 0.63499,0.14818 0.91016,0.254 0.25399,0.10584 0.50799,0.23283 0.76199,0.381 0.23283,0.14818 0.4445,0.29633 0.61383,0.4445 0.16933,0.127 0.33866,0.27516 0.48683,0.4445 0.16933,0.16933 0.27516,0.29632 0.35983,0.40216 0.0847,0.0847 0.14816,0.1905 0.23283,0.29634 l -0.86782,0.63498 c -0.127,-0.16933 -0.21167,-0.29633 -0.29634,-0.38098 -0.0847,-0.0847 -0.23283,-0.254 -0.48683,-0.46568 -0.23283,-0.21166 -0.46566,-0.38099 -0.71966,-0.50799 -0.23283,-0.127 -0.52916,-0.254 -0.91016,-0.35983 -0.35983,-0.127 -0.76199,-0.16934 -1.16415,-0.16934 -0.5715,0 -1.143,0.10584 -1.67216,0.3175 -0.52916,0.23284 -0.97366,0.52916 -1.35466,0.889 -0.38099,0.38099 -0.67732,0.82549 -0.91016,1.35466 -0.21166,0.508 -0.33866,1.03715 -0.33866,1.60865 0,0.57149 0.127,1.1218197 0.33866,1.6298197 0.23284,0.50799 0.52917,0.95249 0.91016,1.33349 0.381,0.381 0.8255,0.67733 1.35466,0.88899 0.52916,0.21167 1.10066,0.33866 1.67216,0.33866 0.40216,0 0.78315,-0.0635 1.16415,-0.16933 0.35983,-0.10583 0.67733,-0.23283 0.91016,-0.35983 0.254,-0.14816 0.48683,-0.29633 0.6985,-0.50799 0.23283,-0.1905 0.40216,-0.35983 0.48683,-0.46567 0.10583,-0.10583 0.21166,-0.23283 0.29633,-0.38099 z"
           style="fill:#333333;fill-opacity:1;fill-rule:evenodd;stroke:none;stroke-width:0.26458332"
           inkscape:connector-curvature="0" />
        <path
           id="path1383-6"
           d="m 263.32848,14.173443 h -1.18532 c -0.16933,-0.33866 -0.23283,-0.65616 -0.21167,-0.95249 -0.71966,0.71966 -1.50282,1.07949 -2.34948,1.07949 -0.40216,0 -0.76199,-0.0635 -1.07949,-0.1905 -0.3175,-0.127 -0.5715,-0.29633 -0.762,-0.48683 -0.1905,-0.21166 -0.31749,-0.42333 -0.42333,-0.65616 -0.0847,-0.23283 -0.127,-0.46566 -0.127,-0.69849 0,-0.254 0.0212,-0.48683 0.10584,-0.67733 0.0847,-0.21167 0.16933,-0.381 0.29633,-0.52916 0.127,-0.14817 0.27516,-0.29633 0.48683,-0.40216 0.1905,-0.127 0.381,-0.21167 0.55033,-0.29634 0.1905,-0.0635 0.40216,-0.127 0.67732,-0.1905 0.254,-0.0423 0.48684,-0.0847 0.67734,-0.10583 0.19049,-0.0423 0.42332,-0.0635 0.71965,-0.0635 0.27517,-0.0212 0.48683,-0.0212 0.635,-0.0212 0.14817,-0.0212 0.33867,-0.0212 0.5715,-0.0212 -0.0635,-0.5715 -0.27517,-1.016 -0.635,-1.35466 -0.33866,-0.33866 -0.74083,-0.508 -1.18532,-0.508 -0.127,0 -0.23283,0.0212 -0.3175,0.0212 -0.10583,0.0212 -0.21167,0.0635 -0.29633,0.0847 -0.0847,0.0423 -0.16934,0.0847 -0.23283,0.127 -0.0847,0.0212 -0.14817,0.0847 -0.21167,0.12699 -0.0847,0.0635 -0.14816,0.127 -0.1905,0.16934 -0.0423,0.0212 -0.10583,0.0847 -0.14816,0.14816 -0.0635,0.0635 -0.10584,0.10583 -0.127,0.14817 -0.0212,0.0212 -0.0423,0.0635 -0.0847,0.127 -0.0423,0.0423 -0.0635,0.0847 -0.0635,0.0847 l -0.889,-0.55033 c 0.0635,-0.127 0.14817,-0.23283 0.1905,-0.29633 0.0635,-0.0847 0.1905,-0.1905 0.35983,-0.38099 0.16933,-0.16934 0.33867,-0.29634 0.50799,-0.40217 0.16934,-0.10583 0.381,-0.21166 0.65617,-0.29633 0.27517,-0.0847 0.55033,-0.14817 0.84666,-0.14817 0.35983,0 0.71966,0.0847 1.05833,0.21167 0.35982,0.14817 0.67732,0.35983 0.93132,0.61383 0.27517,0.254 0.508,0.59266 0.67733,0.99482 0.16933,0.40217 0.254,0.84667 0.27517,1.31233 v 2.30715 c 0,0.31749 0.0212,0.63499 0.0847,0.95249 0.0635,0.3175 0.12699,0.55033 0.21166,0.71966 z m -3.74647,-0.91016 c 0.4445,0 0.88899,-0.14816 1.33349,-0.4445 0.4445,-0.29633 0.78316,-0.63499 1.01599,-1.01599 v -0.93132 c -0.38099,0 -0.71966,0.0212 -1.03716,0.0423 -0.29633,0.0212 -0.63499,0.0635 -0.97365,0.127 -0.33867,0.0423 -0.635,0.127 -0.86783,0.23283 -0.21167,0.0847 -0.40217,0.21166 -0.5715,0.381 -0.14816,0.16933 -0.21166,0.381 -0.21166,0.61383 0,0.23283 0.10583,0.46566 0.31749,0.67732 0.23284,0.21167 0.55033,0.3175 0.99483,0.3175 z"
           style="fill:#333333;fill-opacity:1;fill-rule:evenodd;stroke:none;stroke-width:0.26458332"
           inkscape:connector-curvature="0" />
        <path
           id="path1385-3"
           d="m 266.08013,8.2256533 c 0.48683,-0.55033 1.03716,-0.95249 1.67215,-1.16415 l 1.37583,0.9525 c -0.40217,0 -0.762,0.0423 -1.0795,0.127 -0.31749,0.0635 -0.57149,0.16932 -0.78316,0.29632 -0.21166,0.127 -0.38099,0.27517 -0.55033,0.4445 -0.14816,0.16933 -0.27516,0.3175 -0.33866,0.48682 -0.0847,0.14818 -0.14817,0.3175 -0.21167,0.48683 -0.0423,0.1904997 -0.0635,0.3174997 -0.0847,0.4233397 0,0.10583 0,0.21166 0,0.3175 v 3.57713 h -1.07948 V 9.2416533 c 0,-0.33866 -0.0423,-0.74083 -0.10584,-1.16415 -0.0635,-0.4445 -0.127,-0.74084 -0.21166,-0.889 h 1.20649 c 0.127,0.3175 0.1905,0.67732 0.1905,1.03715 z"
           style="fill:#333333;fill-opacity:1;fill-rule:evenodd;stroke:none;stroke-width:0.26458332"
           inkscape:connector-curvature="0" />
        <path
           id="path1387-7"
           d="m 270.96959,7.1885033 c 0.0635,0.23283 0.127,0.4445 0.127,0.59266 0.0423,0.14816 0.0423,0.40216 0.0423,0.74083 0.254,-0.38099 0.59266,-0.71967 0.97366,-1.01599 0.381,-0.27517 0.76199,-0.42334 1.12182,-0.42334 0.381,0 0.71967,0.0847 1.03717,0.23284 0.29633,0.14816 0.52916,0.35982 0.71965,0.635 0.1905,0.254 0.3175,0.55032 0.42334,0.88899 0.0847,0.33866 0.127,0.6985 0.127,1.05833 v 4.2756197 h -1.10066 V 9.8978233 c 0,-0.21168 -0.0212,-0.40218 -0.0635,-0.59268 -0.0212,-0.19049 -0.0847,-0.38099 -0.16933,-0.57149 -0.0847,-0.1905 -0.23284,-0.33865 -0.40217,-0.4445 -0.16933,-0.10583 -0.35983,-0.16933 -0.61383,-0.16933 -0.29633,0 -0.61383,0.14818 -0.93132,0.46567 -0.33867,0.29633 -0.59266,0.65616 -0.80433,1.05833 -0.21167,0.4021497 -0.3175,0.7408197 -0.3175,1.0371497 v 3.49247 H 270.0594 V 9.2416533 c 0,-0.35983 -0.0423,-0.74083 -0.10583,-1.16415 -0.0423,-0.4445 -0.127,-0.74084 -0.21167,-0.889 z"
           style="fill:#333333;fill-opacity:1;fill-rule:evenodd;stroke:none;stroke-width:0.26458332"
           inkscape:connector-curvature="0" />
        <path
           id="path1389-9"
           d="m 278.39904,9.8978233 h 4.38147 c -0.14817,-0.52918 -0.42333,-0.9525 -0.8255,-1.27 -0.42333,-0.33867 -0.86783,-0.508 -1.35466,-0.508 -0.48683,0 -0.93132,0.16933 -1.35465,0.508 -0.40217,0.3175 -0.67733,0.74082 -0.84666,1.27 z m -0.127,1.0159797 c 0.0635,0.65616 0.31749,1.20649 0.76199,1.65099 0.4445,0.44449 0.9525,0.65616 1.52399,0.65616 0.46567,0 0.88899,-0.10583 1.26999,-0.33867 0.40217,-0.23283 0.71966,-0.57149 0.99483,-1.03715 l 0.93132,0.50799 c -0.16933,0.3175 -0.38099,0.59266 -0.61382,0.84666 -0.254,0.23283 -0.48683,0.42333 -0.6985,0.55033 -0.23283,0.127 -0.46566,0.23283 -0.71966,0.3175 -0.254,0.0847 -0.46566,0.14818 -0.635,0.16933 -0.16933,0.0212 -0.35983,0.0423 -0.52916,0.0423 -0.61383,0 -1.18532,-0.16933 -1.71449,-0.50799 -0.50799,-0.3175 -0.91016,-0.762 -1.20649,-1.29116 -0.29633,-0.57149 -0.44449,-1.16416 -0.44449,-1.79915 0,-0.635 0.14816,-1.2276597 0.44449,-1.7779997 0.3175,-0.55032 0.71966,-0.99482 1.24883,-1.33349 0.50799,-0.3175 1.07949,-0.48683 1.71448,-0.48683 0.59267,0 1.143,0.14818 1.62983,0.4445 0.50799,0.29633 0.91016,0.6985 1.20649,1.2065 0.29633,0.508 0.48683,1.05832 0.52916,1.6509897 l 0.0423,0.52916 z"
           style="fill:#333333;fill-opacity:1;fill-rule:evenodd;stroke:none;stroke-width:0.26458332"
           inkscape:connector-curvature="0" />
        <path
           id="path1391-7"
           d="m 286.75981,14.173443 h -1.10066 V 8.2256533 h -0.59266 v -1.03715 h 0.59266 v -1.54516 h 1.10066 v 1.54516 h 1.98965 l -0.35983,1.03715 h -1.62982 z"
           style="fill:#333333;fill-opacity:1;fill-rule:evenodd;stroke:none;stroke-width:0.26458332"
           inkscape:connector-curvature="0" />
        <path
           id="path1393-4"
           d="m 258.50252,23.656043 h 3.51364 c -0.127,-0.42333 -0.33866,-0.762 -0.67733,-1.03716 -0.3175,-0.254 -0.67733,-0.381 -1.07949,-0.381 -0.381,0 -0.74083,0.127 -1.07949,0.381 -0.3175,0.27516 -0.55033,0.61383 -0.67733,1.03716 z m -0.0847,0.80433 c 0.0423,0.52916 0.23283,0.97366 0.59266,1.3335 0.35983,0.33865 0.762,0.50798 1.22766,0.50798 0.35983,0 0.69849,-0.0847 1.01599,-0.27515 0.3175,-0.1905 0.5715,-0.4445 0.78316,-0.80433 l 0.762,0.40216 c -0.14817,0.25399 -0.3175,0.46567 -0.508,0.65617 -0.1905,0.19048 -0.381,0.33865 -0.55033,0.44448 -0.1905,0.10583 -0.381,0.21167 -0.5715,0.27517 -0.21166,0.0635 -0.38099,0.10583 -0.50799,0.127 -0.14817,0.0212 -0.29634,0.0212 -0.42333,0.0212 -0.508,0 -0.9525,-0.12701 -1.37583,-0.40217 -0.40216,-0.254 -0.74082,-0.59266 -0.97365,-1.03716 -0.23284,-0.4445 -0.33867,-0.91016 -0.33867,-1.43932 0,-0.508 0.10583,-0.97366 0.35983,-1.41816 0.23284,-0.44449 0.55033,-0.78316 0.97366,-1.05833 0.42333,-0.25399 0.889,-0.40216 1.37583,-0.40216 0.46566,0 0.91015,0.127 1.31232,0.35983 0.40216,0.254 0.71966,0.5715 0.97366,0.97366 0.23283,0.40217 0.38099,0.82549 0.42333,1.31233 l 0.0212,0.42333 z"
           style="fill:#333333;fill-opacity:1;fill-rule:evenodd;stroke:none;stroke-width:0.26458332"
           inkscape:connector-curvature="0" />
        <path
           id="path1395-9"
           d="m 265.04297,21.475893 c 0.0635,0.21166 0.0847,0.35983 0.10583,0.48683 0.0212,0.127 0.0212,0.3175 0.0212,0.59266 0.21166,-0.3175 0.46566,-0.59266 0.78316,-0.82549 0.3175,-0.21167 0.61383,-0.33867 0.889,-0.33867 0.31749,0 0.59266,0.0635 0.82549,0.1905 0.254,0.127 0.4445,0.29633 0.59266,0.508 0.14817,0.21166 0.254,0.44449 0.33867,0.71966 0.0635,0.254 0.10583,0.55033 0.10583,0.84666 v 3.42897 h -0.88899 v -3.42897 c 0,-0.16933 0,-0.33867 -0.0423,-0.48683 -0.0212,-0.14817 -0.0847,-0.29633 -0.14817,-0.4445 -0.0635,-0.14816 -0.16933,-0.27516 -0.3175,-0.35983 -0.127,-0.0847 -0.29633,-0.14816 -0.48683,-0.14816 -0.23283,0 -0.48682,0.127 -0.74082,0.38099 -0.27517,0.254 -0.48683,0.52917 -0.65617,0.84666 -0.16933,0.33867 -0.25399,0.59267 -0.25399,0.8255 v 2.81514 h -0.86783 v -3.95813 c 0,-0.27517 -0.0212,-0.59267 -0.0635,-0.93133 -0.0423,-0.35983 -0.10584,-0.59266 -0.1905,-0.71966 z"
           style="fill:#333333;fill-opacity:1;fill-rule:evenodd;stroke:none;stroke-width:0.26458332"
           inkscape:connector-curvature="0" />
        <path
           id="path1397-1"
           d="m 279.81719,27.085013 h -6.37112 v -10.28692 h 1.10066 v 9.20743 h 5.27046 z"
           style="fill:#333333;fill-opacity:1;fill-rule:evenodd;stroke:none;stroke-width:0.26458332"
           inkscape:connector-curvature="0" />
        <path
           id="path1399-7"
           d="m 281.99734,17.814083 c 0.21167,0 0.381,0.0635 0.55033,0.21167 0.14817,0.14816 0.23284,0.33866 0.23284,0.55033 0,0.1905 -0.0847,0.381 -0.23284,0.508 -0.16933,0.14816 -0.33866,0.21166 -0.55033,0.21166 -0.23283,0 -0.42333,-0.0635 -0.57149,-0.21166 -0.14817,-0.127 -0.23283,-0.3175 -0.23283,-0.508 0,-0.21167 0.0847,-0.40217 0.23283,-0.55033 0.14816,-0.14817 0.33866,-0.21167 0.57149,-0.21167 z m 0.52917,9.27093 h -1.10066 v -6.98495 h 1.10066 z"
           style="fill:#333333;fill-opacity:1;fill-rule:evenodd;stroke:none;stroke-width:0.26458332"
           inkscape:connector-curvature="0" />
        <path
           id="path1401-0"
           d="m 289.80779,21.179563 c 0,-0.33867 0.0635,-0.6985 0.16933,-1.0795 h 1.22766 c -0.21167,0.381 -0.3175,1.05833 -0.3175,2.05316 v 4.69896 c 0,0.63501 -0.14817,1.22767 -0.4445,1.778 -0.29633,0.55033 -0.69849,0.99482 -1.22766,1.33349 -0.52916,0.33866 -1.10065,0.48683 -1.71448,0.48683 -0.52917,0 -0.97366,-0.0847 -1.35466,-0.29633 -0.35983,-0.1905 -0.71966,-0.4445 -1.07949,-0.78316 l 0.78316,-0.71967 c 0.14817,0.14817 0.29633,0.27517 0.42333,0.35984 0.127,0.0847 0.29633,0.1905 0.50799,0.27516 0.23284,0.0847 0.48683,0.127 0.71967,0.127 0.61383,0 1.16415,-0.23283 1.60865,-0.74083 0.46567,-0.48683 0.6985,-1.10066 0.6985,-1.82033 v -0.80433 c -0.29633,0.33867 -0.635,0.61383 -1.05833,0.8255 -0.42333,0.21166 -0.84666,0.29634 -1.24882,0.29634 -0.61383,0 -1.18533,-0.14818 -1.71449,-0.48684 -0.508,-0.3175 -0.91016,-0.76198 -1.20649,-1.31232 -0.29633,-0.55033 -0.4445,-1.14299 -0.4445,-1.77799 0,-0.635 0.14817,-1.22766 0.4445,-1.77799 0.29633,-0.55033 0.69849,-0.99482 1.20649,-1.31232 0.52916,-0.33867 1.10066,-0.508 1.71449,-0.508 0.40216,0 0.82549,0.10583 1.22765,0.33867 0.42333,0.21166 0.78317,0.48683 1.0795,0.84666 z m -0.71967,4.23331 c 0.4445,-0.508 0.67733,-1.10067 0.67733,-1.82033 0,-0.71966 -0.23283,-1.31232 -0.67733,-1.82032 -0.46566,-0.48683 -1.01599,-0.74083 -1.62982,-0.74083 -0.61383,0 -1.14299,0.254 -1.60865,0.74083 -0.4445,0.508 -0.67733,1.10066 -0.67733,1.82032 0,0.71966 0.23283,1.31233 0.67733,1.82033 0.46566,0.48683 0.99482,0.74083 1.60865,0.74083 0.61383,0 1.16416,-0.254 1.62982,-0.74083 z"
           style="fill:#333333;fill-opacity:1;fill-rule:evenodd;stroke:none;stroke-width:0.26458332"
           inkscape:connector-curvature="0" />
        <path
           id="path1403-6"
           d="m 293.72359,20.078903 c 0.0847,0.254 0.127,0.4445 0.14817,0.61383 0.0212,0.14816 0.0212,0.38099 0.0212,0.74082 0.27516,-0.40216 0.59266,-0.74082 0.97366,-1.03715 0.40216,-0.27517 0.762,-0.42334 1.12183,-0.42334 0.381,0 0.74083,0.0847 1.03715,0.23284 0.29634,0.16933 0.55033,0.35983 0.71966,0.63499 0.1905,0.27517 0.33867,0.5715 0.42333,0.91016 0.0847,0.3175 0.127,0.67733 0.127,1.05833 v 4.27563 h -1.07949 v -4.27563 c 0,-0.21167 -0.0212,-0.42333 -0.0635,-0.61383 -0.0423,-0.1905 -0.10582,-0.381 -0.1905,-0.5715 -0.0847,-0.16933 -0.21165,-0.33866 -0.381,-0.44449 -0.16932,-0.10584 -0.38098,-0.16933 -0.61382,-0.16933 -0.29633,0 -0.61383,0.16933 -0.9525,0.46566 -0.3175,0.31749 -0.59266,0.67733 -0.80432,1.07949 -0.21167,0.40216 -0.3175,0.74083 -0.3175,1.01599 v 3.51364 h -1.07949 v -4.93179 c 0,-0.35984 -0.0212,-0.762 -0.0847,-1.18533 -0.0635,-0.44449 -0.127,-0.74083 -0.23283,-0.88899 z"
           style="fill:#333333;fill-opacity:1;fill-rule:evenodd;stroke:none;stroke-width:0.26458332"
           inkscape:connector-curvature="0" />
        <path
           id="path1405-0"
           d="m 301.15305,22.788213 h 4.38146 c -0.14816,-0.52916 -0.42333,-0.95249 -0.82549,-1.26999 -0.40217,-0.33866 -0.86783,-0.48683 -1.35465,-0.48683 -0.48684,0 -0.93132,0.14817 -1.3335,0.48683 -0.42332,0.3175 -0.6985,0.74083 -0.86782,1.26999 z m -0.10584,1.01599 c 0.0423,0.67733 0.29634,1.22767 0.74084,1.651 0.4445,0.4445 0.95248,0.65615 1.54514,0.65615 0.4445,0 0.86783,-0.10583 1.27,-0.33865 0.38099,-0.23283 0.71966,-0.5715 0.97366,-1.016 l 0.93133,0.48683 c -0.16934,0.3175 -0.381,0.61384 -0.61384,0.84667 -0.23283,0.23282 -0.46566,0.42332 -0.69849,0.55032 -0.23283,0.14816 -0.46567,0.25399 -0.71966,0.33866 -0.23282,0.0847 -0.4445,0.127 -0.635,0.14817 -0.16932,0.0212 -0.33866,0.0423 -0.508,0.0423 -0.63499,0 -1.20648,-0.16934 -1.71448,-0.48684 -0.52916,-0.33866 -0.93133,-0.76199 -1.22767,-1.31232 -0.29633,-0.55033 -0.42333,-1.14299 -0.42333,-1.79916 0,-0.63499 0.14817,-1.22765 0.4445,-1.77799 0.29634,-0.55032 0.6985,-0.99482 1.22766,-1.31232 0.52918,-0.33866 1.10066,-0.508 1.7145,-0.508 0.59265,0 1.14298,0.14817 1.62981,0.4445 0.508,0.3175 0.91016,0.71966 1.2065,1.20649 0.3175,0.508 0.48682,1.05833 0.55032,1.65099 l 0.0212,0.52916 z"
           style="fill:#333333;fill-opacity:1;fill-rule:evenodd;stroke:none;stroke-width:0.26458332"
           inkscape:connector-curvature="0" />
        <path
           id="path1411-3"
           d="m 287.9028,1.8333733 v -4.40264 h 4.76247 c 1.26998,0 2.30715,-0.95249 2.30715,-2.09548 v -4.33914 h 10.01176 v 0 c 0.35983,0 0.71967,0.127 0.97366,0.35983 0.254,0.23284 0.40217,0.55033 0.40217,0.889 v 7.26010997 l 1.79915,-1.62981997 v -5.63029 c 0,-0.78316 -0.33866,-1.52399 -0.95248,-2.07432 -0.59268,-0.5503303 -1.397,-0.8254903 -2.2225,-0.8254903 v 0 l -10.45626,0.0212 c -0.84666,0 -1.62982,0.3175 -2.22249,0.8255003 l -5.29162,4.82596 c -0.59267,0.55033 -0.91016,1.26999 -0.91016,2.07432 v 4.7413 m 5.14346,12.3824097 h 1.96848 1.94732 1.9685 1.96847 1.94733 1.96849 1.96848 c 1.73566,0 3.17498,-1.31233 3.17498,-2.89982 V 6.5958733 l -1.79915,1.65099 v 3.0479797 h -0.0423 c 0,0.69849 -0.61383,1.24882 -1.37583,1.24882 h -1.94732 -1.96847 -1.94734 -1.96847 -1.94733 -1.96849 -1.94732 m 1.88379,-20.7643497 v 3.57715 c 0,0.23283 -0.1905,0.44449 -0.48683,0.44449 h -3.89464 z"
           style="fill:#c3d45d;fill-opacity:1;fill-rule:evenodd;stroke:none;stroke-width:0.26458332"
           inkscape:connector-curvature="0" />
        <path
           id="path1413-9"
           d="m 301.21655,6.0243433 6.37111,-5.82079003 2.75166,2.49764003 -6.37113,5.8208 z"
           style="fill:#e16e38;fill-opacity:1;fill-rule:evenodd;stroke:none;stroke-width:0.26458332"
           inkscape:connector-curvature="0" />
        <path
           id="path1415-4"
           d="m 312.77346,-0.49494673 -1.69332,-1.54514997 c -0.27517,-0.254 -0.74082,-0.29634 -0.99482,-0.0423 l -1.4605,1.33348997 2.70932,2.47648003 1.46048,-1.33349003 c 0.29634,-0.21166 0.27517,-0.63499 -0.0212,-0.88899 z"
           style="fill:#e16e38;fill-opacity:1;fill-rule:evenodd;stroke:none;stroke-width:0.26458332"
           inkscape:connector-curvature="0" />
        <path
           id="path1417-1"
           d="m 298.88822,10.045973 c -0.0847,0.33867 0.29633,0.65617 0.63499,0.5715 l 0.86783,-0.16933 c 0.91017,-0.1905 1.77801,-0.5503197 2.51883,-1.0794997 l -2.66699,-2.39181 c -0.57151,0.69849 -0.97366,1.43932 -1.18533,2.30716 z"
           style="fill:#e16e38;fill-opacity:1;fill-rule:evenodd;stroke:none;stroke-width:0.26458332"
           inkscape:connector-curvature="0" />
        <path
           id="path1419-5"
           d="m 290.33695,13.390283 c 0,0.48683 0.40216,0.82551 0.88899,0.82551 h 4.99531 c 0,-0.0847 0.0212,-0.127 0.0212,-0.21168 l 0.21165,-0.80433 c 0.0635,-0.23283 0.10585,-0.44449 0.1905,-0.65616 h -5.37629 c -0.52917,0.0212 -0.93133,0.40216 -0.93133,0.84666 z"
           style="fill:#c3d45d;fill-opacity:1;fill-rule:evenodd;stroke:none;stroke-width:0.26458332"
           inkscape:connector-curvature="0" />
        <path
           id="path1421-4"
           d="m 287.03497,3.2938633 c 0.508,0 0.889,-0.40217 0.889,-0.889 v -4.97413 c -0.0847,0 -0.14817,-0.0423 -0.23283,-0.0423 l -0.86783,-0.1905 c -0.254,-0.0635 -0.48683,-0.127 -0.71966,-0.21166 v 5.39746 c 0.0423,0.50799 0.44449,0.91016 0.93132,0.91016 z"
           style="fill:#c3d45d;fill-opacity:1;fill-rule:evenodd;stroke:none;stroke-width:0.26458332"
           inkscape:connector-curvature="0" />
        <g
           style="display:inline;fill:#c3d45d;fill-opacity:1;paint-order:markers stroke fill"
           id="g827-8-4-5-8-0-1"
           transform="matrix(0,-0.10803405,0.10803405,0,181.69165,33.771343)">
          <path
             inkscape:connector-curvature="0"
             style="fill:#c3d45d;fill-opacity:1;stroke-width:0.40831766;paint-order:markers stroke fill"
             d="m 207.1875,182.34766 c -0.74218,0.004 -1.55145,0.10054 -1.81641,0.17187 -0.13025,0 -1.46239,0.48916 -2.94921,1.08399 -5.89726,2.35926 -11.54537,6.34482 -17.0586,12.04492 -7.33832,7.58699 -11.53935,14.94416 -16.21875,28.36523 -2.25301,6.46186 -2.67591,7.38582 -3.48242,7.69531 -0.96183,0.36907 -6.8965,-2.65857 -18.65625,-9.54492 -12.38415,-7.2521 -17.18626,-9.71007 -20.00781,-10.2207 -3.97146,-0.71877 -13.95019,-0.9184 -22.43164,-0.45898 -16.399354,0.88827 -25.329649,2.71185 -26.169926,5.35937 -0.08816,0.27772 -0.136705,0.58927 -0.140625,0.94336 0,0.11803 0.0059,0.24445 0.01367,0.37109 0.223922,3.54619 4.098432,10.40237 11.369141,20.09571 4.701696,6.26823 9.257823,11.58531 13.24414,15.45312 3.50774,3.40361 6.70589,5.0025 18.40039,9.22461 9.83303,3.55002 14.4167,5.69014 16.33203,7.60547 2.88089,2.88085 1.71177,4.23866 -7.75781,9.0332 -7.56,3.82777 -11.06174,6.0587 -14.20117,9.04688 -2.95283,2.81054 -4.19125,4.56237 -6.55859,9.28906 -3.40027,6.78902 -6.19052,16.35383 -5.90821,20.26367 l 0.12696,1.74805 8.98242,-0.0391 c 13.61164,-0.0503 17.03309,-1.0014 27.4082,-7.62891 7.90715,-5.05095 14.20026,-8.54392 17.41797,-9.67188 6.10375,-2.13963 10.06859,-3.67488 12.9082,-5.28124 -2.52564,-1.50698 -4.77932,-3.34597 -6.69531,-5.45704 -2.22333,1.12675 -5.17762,2.84372 -8.68164,5.08204 -6.72384,4.2951 -8.94036,4.91269 -17.76172,4.94531 l -5.82226,0.0254 -0.082,-1.13281 c -0.18295,-2.53387 1.6245,-8.73302 3.82813,-13.13282 1.53421,-3.06325 2.33634,-4.19809 4.25,-6.01953 2.03459,-1.93656 4.30563,-3.3826 9.20508,-5.86328 6.13699,-3.10722 6.89437,-3.98651 5.02734,-5.85352 -1.24128,-1.24125 -4.2134,-2.629 -10.58594,-4.92968 -7.57891,-2.73625 -9.65055,-3.77273 -11.92382,-5.97852 -2.58344,-2.50663 -5.53694,-5.95139 -8.58399,-10.01367 -4.71196,-6.282 -7.22207,-10.7272 -7.36719,-13.02539 -0.005,-0.0821 -0.008,-0.16179 -0.008,-0.23828 0.003,-0.22948 0.0327,-0.4333 0.0898,-0.61328 0.54454,-1.7158 6.33293,-2.89698 16.96093,-3.47266 5.49662,-0.29773 11.96331,-0.16894 14.53711,0.29688 1.82858,0.33092 4.94094,1.92509 12.9668,6.625 7.6212,4.46286 11.4665,6.42472 12.08984,6.18554 0.52268,-0.20057 0.79769,-0.79856 2.25782,-4.98633 3.03258,-8.69785 5.75398,-13.46587 10.50976,-18.38281 3.57298,-3.69409 7.23478,-6.27766 11.05664,-7.80664 0.96359,-0.38549 1.82574,-0.70312 1.91016,-0.70312 0.22895,-0.0616 1.08508,-0.15389 1.6289,-0.0918 1.97706,0.75867 3.3578,9.46658 2.84571,17.95312 -0.0897,1.48615 -0.23901,3.01305 -0.41797,4.55469 1.8018,-0.049 3.38724,0.45199 6.74414,1.5625 2.25895,-9.04463 3.74888,-18.24736 4.26172,-26.74609 0.79017,-13.09501 -1.33801,-26.53053 -4.38867,-27.70117 -0.20979,-0.024 -0.44988,-0.0325 -0.69727,-0.0312 z M 195.75,220.4668 v 0.3457 c 0.0339,-0.11549 0.0677,-0.22998 0.10156,-0.3457 z m -4.77344,16.97461 v 0.0723 c 0.0169,-0.006 0.0339,-0.0114 0.0508,-0.0176 0.005,-0.0182 0.0102,-0.0363 0.0156,-0.0547 z"
             transform="matrix(0,2.4490735,-2.4490735,0,903.52521,163.67997)"
             id="path3058-3-5-6-75-3-5" />
        </g>
      </g>
    </g>
  </g>
</svg>
