<?xml version="1.0"?>
<svg xmlns="http://www.w3.org/2000/svg" height="512px" viewBox="0 0 476 476.7782" width="512px" class=""><g><g><path d="m201.460938 343.519531-67.839844 67.921875c-12.515625 12.476563-32.765625 12.476563-45.28125 0l-22.640625-22.640625c-12.476563-12.515625-12.476563-32.765625 0-45.28125l67.921875-67.839843c10.296875-10.285157 26.253906-12.296876 38.785156-4.886719l34.476562-34.480469c-31.835937-25.917969-78.109374-23.601562-107.199218 5.367188l-67.902344 67.921874c-31.199219 31.253907-31.199219 81.867188 0 113.121094l22.640625 22.636719c31.230469 31.253906 81.886719 31.253906 113.117187 0l67.921876-67.917969c28.957031-29.09375 31.273437-75.359375 5.367187-107.199218l-34.480469 34.480468c7.417969 12.53125 5.40625 28.496094-4.886718 38.796875zm0 0" fill="#006df0" data-original="#C3D45D" class="" style="fill:#C3D45D" data-old_color="#92AD27"/><path d="m276.019531 133.28125 67.839844-67.921875c12.515625-12.476563 32.765625-12.476563 45.28125 0l22.640625 22.640625c12.476562 12.515625 12.476562 32.765625 0 45.28125l-67.921875 67.839844c-10.300781 10.285156-26.253906 12.292968-38.78125 4.886718l-34.480469 34.480469c31.835938 25.917969 78.109375 23.601563 107.199219-5.367187l67.917969-67.921875c31.203125-31.25 31.203125-81.867188 0-113.117188l-22.65625-22.640625c-31.230469-31.253906-81.886719-31.253906-113.117188 0l-67.921875 67.917969c-28.957031 29.097656-31.273437 75.359375-5.367187 107.203125l34.480468-34.480469c-7.417968-12.535156-5.40625-28.5 4.886719-38.800781zm0 0" fill="#006df0" data-original="#C3D45D" class="" style="fill:#C3D45D" data-old_color="#92AD27"/><path d="m310.910156 166.234375-147.082031 147.078125 5.65625 5.65625c6.25 6.25 16.382813 6.25 22.632813 0l124.449218-124.449219c6.25-6.246093 6.25-16.382812 0-22.628906zm0 0" fill="#00479b" data-original="#EAEAE7" class="" style="fill:#EAEAE7" data-old_color="#F7F7F2"/><path d="m305.253906 160.578125c-6.25-6.253906-16.382812-6.253906-22.632812 0l-45.96875 45.96875-29.769532 29.765625-34.476562 34.480469-14.234375 14.230469c-6.25 6.25-6.25 16.382812 0 22.632812l5.65625 5.65625 147.082031-147.078125zm0 0" fill="#005ece" data-original="#EAEAE7" class="" style="fill:#EAEAE7" data-old_color="#CFD1C5"/><path d="m451.355469 48.425781-22.640625-22.640625c-34.351563-34.378906-90.078125-34.378906-124.429688 0l-67.921875 67.921875c-29.660156 30.144531-33.945312 77.03125-10.238281 112.054688l-20 20c-34.960938-23.980469-82.042969-19.679688-112.082031 10.238281l-67.917969 67.921875c-34.3125 34.378906-34.3125 90.050781 0 124.429687l22.640625 22.640626c34.351563 34.382812 90.078125 34.382812 124.429687 0l67.921876-67.917969c29.660156-30.148438 33.945312-77.03125 10.238281-112.058594l20-20c34.960937 23.976563 82.03125 19.6875 112.082031-10.214844l67.917969-67.917969c34.332031-34.386718 34.332031-90.074218 0-124.457031zm-169.671875 90.503907 67.832031-67.914063c9.515625-9.046875 24.453125-9.046875 33.96875 0l22.640625 22.640625c9.355469 9.386719 9.355469 24.574219 0 33.960938l-67.921875 67.847656c-4.800781 4.804687-11.429687 7.328125-18.214844 6.9375l2.230469-2.226563c9.375-9.371093 9.375-24.570312 0-33.941406l-11.308594-11.3125c-9.375-9.375-24.574218-9.375-33.945312 0l-2.222656 2.230469c-.390626-6.785156 2.136718-13.414063 6.941406-18.222656zm6.59375 27.304687c3.125-3.125 8.1875-3.125 11.3125 0l11.320312 11.320313c3.121094 3.121093 3.121094 8.1875 0 11.308593l-124.457031 124.449219c-3.167969 3.019531-8.144531 3.019531-11.3125 0l-11.3125-11.3125c-3.121094-3.121094-3.121094-8.1875 0-11.3125zm-92.480469 171.640625-67.832031 67.910156c-9.515625 9.046875-24.453125 9.046875-33.96875 0l-22.640625-22.640625c-9.351563-9.386719-9.351563-24.570312 0-33.960937l67.921875-67.847656c4.808594-4.792969 11.429687-7.316407 18.207031-6.933594l-4.96875 4.976562c-9.367187 9.371094-9.367187 24.5625 0 33.933594l11.3125 11.3125c9.371094 9.371094 24.5625 9.371094 33.9375 0l4.976563-4.976562c.386718 6.789062-2.140626 13.417968-6.945313 18.226562zm34.007813 33.910156-67.921876 67.921875c-28.113281 28.105469-73.691406 28.105469-101.804687 0l-22.640625-22.640625c-28.0625-28.136718-28.0625-73.675781 0-101.808594l67.917969-67.921874c23.777343-23.6875 60.757812-27.828126 89.183593-9.992188l-23.796874 23.785156c-14.761719-5.839844-31.582032-2.34375-42.792969 8.894532l-67.921875 67.839843c-15.605469 15.636719-15.605469 40.957031 0 56.59375l22.640625 22.640625c15.636719 15.609375 40.957031 15.609375 56.59375 0l67.839843-67.914062c11.230469-11.207032 14.734376-28.019532 8.910157-42.78125l23.769531-23.777344c17.597656 28.472656 13.480469 65.28125-9.976562 89.160156zm210.238281-210.238281-67.917969 67.917969c-23.777344 23.6875-60.753906 27.832031-89.183594 9.992187l23.800782-23.800781c14.75 5.882812 31.582031 2.386719 42.773437-8.878906l67.921875-67.839844c15.605469-15.636719 15.605469-40.957031 0-56.59375l-22.640625-22.636719c-15.636719-15.613281-40.957031-15.613281-56.59375 0l-67.839844 67.910157c-11.226562 11.214843-14.722656 28.023437-8.894531 42.785156l-23.769531 23.789062c-17.609375-28.472656-13.488281-65.292968 9.976562-89.175781l67.921875-67.917969c28.113282-28.109375 73.691406-28.109375 101.808594 0l22.636719 22.640625c28.066406 28.132813 28.066406 73.671875 0 101.808594zm0 0" data-original="#3D480E" class="active-path" style="fill:#3D480E" data-old_color="#000000"/></g></g> </svg>
